<?xml version="1.0" encoding="UTF-8"?>
<svg width="512" height="512" viewBox="0 0 512 512" xmlns="http://www.w3.org/2000/svg">
  <defs>
    <!-- Success gradient for analytics growth -->
    <linearGradient id="successGradient" x1="0%" y1="0%" x2="100%" y2="100%">
      <stop offset="0%" style="stop-color:#16A34A;stop-opacity:1" />
      <stop offset="100%" style="stop-color:#15803D;stop-opacity:1" />
    </linearGradient>

    <!-- Shadow filter -->
    <filter id="shadow" x="-20%" y="-20%" width="140%" height="140%">
      <feDropShadow dx="0" dy="4" stdDeviation="6" flood-color="#16A34A" flood-opacity="0.3"/>
    </filter>

    <!-- Chart gradient fill -->
    <linearGradient id="chartGradient" x1="0%" y1="0%" x2="0%" y2="100%">
      <stop offset="0%" style="stop-color:#FFFFFF;stop-opacity:0.9" />
      <stop offset="100%" style="stop-color:#FFFFFF;stop-opacity:0.3" />
    </linearGradient>

    <!-- Growth pattern -->
    <pattern id="growthPattern" x="0" y="0" width="20" height="20" patternUnits="userSpaceOnUse">
      <polygon points="10,2 12,8 18,8 13,12 15,18 10,14 5,18 7,12 2,8 8,8" fill="#FFFFFF" opacity="0.1"/>
    </pattern>
  </defs>

  <!-- Background with rounded corners -->
  <rect x="32" y="32" width="448" height="448" rx="75" ry="75" fill="url(#successGradient)" filter="url(#shadow)"/>

  <!-- Main dashboard container -->
  <g transform="translate(256, 256)">
    <!-- Dashboard frame -->
    <rect x="-180" y="-150" width="360" height="300" fill="#FFFFFF" rx="12" stroke="#16A34A" stroke-width="3"/>

    <!-- Title bar -->
    <rect x="-180" y="-150" width="360" height="40" fill="#F0FDF4" rx="12"/>
    <rect x="-180" y="-110" width="360" height="12" fill="#F0FDF4"/>

    <!-- Title text simulation -->
    <rect x="-160" y="-135" width="80" height="8" fill="#16A34A" rx="2"/>
    <rect x="-160" y="-123" width="120" height="6" fill="#22C55E" opacity="0.7" rx="2"/>

    <!-- Control buttons -->
    <circle cx="140" cy="-130" r="6" fill="#EF4444"/>
    <circle cx="155" cy="-130" r="6" fill="#F59E0B"/>
    <circle cx="170" cy="-130" r="6" fill="#16A34A"/>

    <!-- Main chart area -->
    <rect x="-160" y="-90" width="320" height="200" fill="#FEFFFE" rx="8" stroke="#E5E7EB" stroke-width="1"/>

    <!-- Bar chart -->
    <g transform="translate(-120, 50)">
      <!-- Chart bars with animation -->
      <rect x="0" y="0" width="20" height="60" fill="url(#chartGradient)">
        <animate attributeName="height" values="40;60;50" dur="3s" repeatCount="indefinite"/>
        <animate attributeName="y" values="20;0;10" dur="3s" repeatCount="indefinite"/>
      </rect>
      <rect x="30" y="-10" width="20" height="70" fill="url(#chartGradient)">
        <animate attributeName="height" values="60;70;65" dur="3s" begin="0.5s" repeatCount="indefinite"/>
        <animate attributeName="y" values="0;-10;-5" dur="3s" begin="0.5s" repeatCount="indefinite"/>
      </rect>
      <rect x="60" y="-25" width="20" height="85" fill="url(#chartGradient)">
        <animate attributeName="height" values="75;85;80" dur="3s" begin="1s" repeatCount="indefinite"/>
        <animate attributeName="y" values="-15;-25;-20" dur="3s" begin="1s" repeatCount="indefinite"/>
      </rect>
      <rect x="90" y="-40" width="20" height="100" fill="url(#chartGradient)">
        <animate attributeName="height" values="85;100;95" dur="3s" begin="1.5s" repeatCount="indefinite"/>
        <animate attributeName="y" values="-25;-40;-35" dur="3s" begin="1.5s" repeatCount="indefinite"/>
      </rect>
      <rect x="120" y="-30" width="20" height="90" fill="url(#chartGradient)">
        <animate attributeName="height" values="80;90;85" dur="3s" begin="2s" repeatCount="indefinite"/>
        <animate attributeName="y" values="-20;-30;-25" dur="3s" begin="2s" repeatCount="indefinite"/>
      </rect>
      <rect x="150" y="-50" width="20" height="110" fill="url(#chartGradient)">
        <animate attributeName="height" values="95;110;105" dur="3s" begin="2.5s" repeatCount="indefinite"/>
        <animate attributeName="y" values="-35;-50;-45" dur="3s" begin="2.5s" repeatCount="indefinite"/>
      </rect>

      <!-- Chart baseline -->
      <line x1="-10" y1="60" x2="180" y2="60" stroke="#16A34A" stroke-width="2"/>
      <line x1="-10" y1="60" x2="-10" y2="-60" stroke="#16A34A" stroke-width="2"/>

      <!-- Y-axis labels -->
      <text x="-25" y="65" fill="#16A34A" font-family="Arial" font-size="10" text-anchor="middle">$0</text>
      <text x="-25" y="15" fill="#16A34A" font-family="Arial" font-size="10" text-anchor="middle">$50K</text>
      <text x="-25" y="-35" fill="#16A34A" font-family="Arial" font-size="10" text-anchor="middle">$100K</text>
    </g>

    <!-- Trend line overlay -->
    <path d="M-110,50 Q-50,30 0,10 T110,-30" stroke="#22C55E" stroke-width="3" fill="none" opacity="0.8">
      <animate attributeName="stroke-dashoffset" values="0;20" dur="2s" repeatCount="indefinite"/>
    </path>

    <!-- Growth arrow -->
    <g transform="translate(120, -80)">
      <path d="M0,20 L0,-20 M-10,-10 L0,-20 L10,-10" stroke="#16A34A" stroke-width="4" fill="none" stroke-linecap="round"/>
      <text x="15" y="-5" fill="#16A34A" font-family="Arial" font-size="12" font-weight="bold">+24%</text>
    </g>

    <!-- KPI boxes -->
    <g transform="translate(-140, -60)">
      <!-- Properties KPI -->
      <rect x="0" y="0" width="80" height="30" fill="#F0FDF4" rx="4" stroke="#16A34A" stroke-width="1"/>
      <text x="40" y="12" fill="#16A34A" font-family="Arial" font-size="8" text-anchor="middle" font-weight="bold">Properties</text>
      <text x="40" y="24" fill="#15803D" font-family="Arial" font-size="10" text-anchor="middle" font-weight="bold">1,550</text>
    </g>

    <g transform="translate(60, -60)">
      <!-- ROI KPI -->
      <rect x="0" y="0" width="80" height="30" fill="#F0FDF4" rx="4" stroke="#16A34A" stroke-width="1"/>
      <text x="40" y="12" fill="#16A34A" font-family="Arial" font-size="8" text-anchor="middle" font-weight="bold">Avg ROI</text>
      <text x="40" y="24" fill="#15803D" font-family="Arial" font-size="10" text-anchor="middle" font-weight="bold">23.7%</text>
    </g>

    <!-- Pie chart -->
    <g transform="translate(120, 20)">
      <circle cx="0" cy="0" r="25" fill="#DCFCE7"/>

      <!-- Pie slices -->
      <path d="M0,0 L0,-25 A25,25 0 0,1 17.7,-17.7 Z" fill="#22C55E"/>
      <path d="M0,0 L17.7,-17.7 A25,25 0 0,1 25,0 Z" fill="#16A34A"/>
      <path d="M0,0 L25,0 A25,25 0 0,1 0,25 Z" fill="#15803D"/>
      <path d="M0,0 L0,25 A25,25 0 0,1 0,-25 Z" fill="#BBFF88"/>

      <circle cx="0" cy="0" r="8" fill="#FFFFFF"/>
    </g>
  </g>

  <!-- Growth pattern overlay -->
  <rect x="32" y="32" width="448" height="448" rx="75" ry="75" fill="url(#growthPattern)" opacity="0.4"/>

  <!-- Data points floating -->
  <g opacity="0.6">
    <circle cx="120" cy="120" r="3" fill="#FFFFFF">
      <animateTransform attributeName="transform" type="translate" values="0,0; 5,-5; 0,0" dur="4s" repeatCount="indefinite"/>
    </circle>
    <circle cx="400" cy="150" r="2" fill="#FFFFFF">
      <animateTransform attributeName="transform" type="translate" values="0,0; -3,3; 0,0" dur="3s" repeatCount="indefinite"/>
    </circle>
    <circle cx="380" cy="380" r="4" fill="#FFFFFF">
      <animateTransform attributeName="transform" type="translate" values="0,0; 2,-4; 0,0" dur="5s" repeatCount="indefinite"/>
    </circle>
  </g>
</svg>